<svg height='300px' width='300px'  fill="#FFFFFF" xmlns="http://www.w3.org/2000/svg" xmlns:xlink="http://www.w3.org/1999/xlink" version="1.1" x="0px" y="0px" viewBox="0 0 100 100" enable-background="new 0 0 100 100" xml:space="preserve"><g><g><path d="M50,8c23.159,0,42,18.841,42,42S73.159,92,50,92S8,73.159,8,50S26.841,8,50,8 M50,5C25.147,5,5,25.147,5,50    s20.147,45,45,45s45-20.147,45-45S74.853,5,50,5L50,5z"></path></g><g><g><path d="M74.949,40.465H63.242c-1.407,0-2.551,1.145-2.551,2.552v25.769c0,1.407,1.145,2.551,2.551,2.551h11.707     c1.407,0,2.551-1.145,2.551-2.551V43.016C77.5,41.609,76.355,40.465,74.949,40.465z"></path><path d="M55.848,28.663H44.152c-1.407,0-2.551,1.145-2.551,2.551v37.572c0,1.407,1.145,2.551,2.551,2.551h11.696     c1.407,0,2.551-1.145,2.551-2.551V31.214C58.399,29.807,57.254,28.663,55.848,28.663z"></path><path d="M36.758,50.342H25.051c-1.407,0-2.551,1.145-2.551,2.551v15.893c0,1.407,1.145,2.551,2.551,2.551h11.707     c1.407,0,2.551-1.145,2.551-2.551V52.893C39.309,51.487,38.165,50.342,36.758,50.342z"></path></g></g></g></svg>